<svg id="visual" viewBox="0 0 900 600" width="900" height="600" xmlns="http://www.w3.org/2000/svg" xmlns:xlink="http://www.w3.org/1999/xlink" version="1.1"><rect x="0" y="0" width="900" height="600" fill="#1e40af"></rect><defs><linearGradient id="grad1_0" x1="33.3%" y1="0%" x2="100%" y2="100%"><stop offset="20%" stop-color="#1e40af" stop-opacity="1"></stop><stop offset="80%" stop-color="#1e40af" stop-opacity="1"></stop></linearGradient></defs><defs><linearGradient id="grad2_0" x1="0%" y1="0%" x2="66.7%" y2="100%"><stop offset="20%" stop-color="#1e40af" stop-opacity="1"></stop><stop offset="80%" stop-color="#1e40af" stop-opacity="1"></stop></linearGradient></defs><g transform="translate(900, 0)"><path d="M0 486.7C-48.8 442.8 -97.7 398.9 -157.7 380.6C-217.7 362.4 -288.8 369.8 -341.5 341.5C-394.3 313.2 -428.6 249.2 -449.7 186.3C-470.8 123.4 -478.8 61.7 -486.7 0L0 0Z" fill="#F9FEFF"></path></g><g transform="translate(0, 600)"><path d="M0 -486.7C47.7 -443.8 95.3 -400.8 159.2 -384.3C223.1 -367.9 303.1 -378.1 344.2 -344.2C385.3 -310.3 387.4 -232.3 404.7 -167.6C421.9 -102.9 454.3 -51.5 486.7 0L0 0Z" fill="#F9FEFF"></path></g></svg>