<svg id="visual" viewBox="0 0 900 600" width="900" height="600" xmlns="http://www.w3.org/2000/svg" xmlns:xlink="http://www.w3.org/1999/xlink" version="1.1"><rect x="0" y="0" width="900" height="600" fill="#F9FEFF"></rect><defs><linearGradient id="grad1_0" x1="33.3%" y1="0%" x2="100%" y2="100%"><stop offset="20%" stop-color="#f9feff" stop-opacity="1"></stop><stop offset="80%" stop-color="#f9feff" stop-opacity="1"></stop></linearGradient></defs><defs><linearGradient id="grad2_0" x1="0%" y1="0%" x2="66.7%" y2="100%"><stop offset="20%" stop-color="#f9feff" stop-opacity="1"></stop><stop offset="80%" stop-color="#f9feff" stop-opacity="1"></stop></linearGradient></defs><g transform="translate(900, 0)"><path d="M0 486.7C-45.8 406.7 -91.6 326.7 -171 296.2C-250.4 265.6 -363.3 284.5 -421.5 243.4C-479.8 202.3 -483.3 101.1 -486.7 0L0 0Z" fill="#1e40af"></path></g><g transform="translate(0, 600)"><path d="M0 -486.7C104.9 -485.5 209.9 -484.2 243.4 -421.5C276.9 -358.9 238.9 -235 267.6 -154.5C296.3 -74 391.5 -37 486.7 0L0 0Z" fill="#1e40af"></path></g></svg>