<svg id="visual" viewBox="0 0 900 600" width="900" height="600" xmlns="http://www.w3.org/2000/svg" xmlns:xlink="http://www.w3.org/1999/xlink" version="1.1"><path d="M0 49L13.7 50C27.3 51 54.7 53 82 62C109.3 71 136.7 87 163.8 90C191 93 218 83 245.2 79C272.3 75 299.7 77 327 74C354.3 71 381.7 63 409 65C436.3 67 463.7 79 491 79C518.3 79 545.7 67 573 60C600.3 53 627.7 51 654.8 56C682 61 709 73 736.2 79C763.3 85 790.7 85 818 81C845.3 77 872.7 69 886.3 65L900 61L900 0L886.3 0C872.7 0 845.3 0 818 0C790.7 0 763.3 0 736.2 0C709 0 682 0 654.8 0C627.7 0 600.3 0 573 0C545.7 0 518.3 0 491 0C463.7 0 436.3 0 409 0C381.7 0 354.3 0 327 0C299.7 0 272.3 0 245.2 0C218 0 191 0 163.8 0C136.7 0 109.3 0 82 0C54.7 0 27.3 0 13.7 0L0 0Z" fill="#6198ff"></path><path d="M0 217L13.7 215C27.3 213 54.7 209 82 200C109.3 191 136.7 177 163.8 178C191 179 218 195 245.2 192C272.3 189 299.7 167 327 158C354.3 149 381.7 153 409 160C436.3 167 463.7 177 491 178C518.3 179 545.7 171 573 158C600.3 145 627.7 127 654.8 131C682 135 709 161 736.2 173C763.3 185 790.7 183 818 177C845.3 171 872.7 161 886.3 156L900 151L900 59L886.3 63C872.7 67 845.3 75 818 79C790.7 83 763.3 83 736.2 77C709 71 682 59 654.8 54C627.7 49 600.3 51 573 58C545.7 65 518.3 77 491 77C463.7 77 436.3 65 409 63C381.7 61 354.3 69 327 72C299.7 75 272.3 73 245.2 77C218 81 191 91 163.8 88C136.7 85 109.3 69 82 60C54.7 51 27.3 49 13.7 48L0 47Z" fill="#3c80ff"></path><path d="M0 355L13.7 357C27.3 359 54.7 363 82 354C109.3 345 136.7 323 163.8 308C191 293 218 285 245.2 279C272.3 273 299.7 269 327 288C354.3 307 381.7 349 409 372C436.3 395 463.7 399 491 400C518.3 401 545.7 399 573 372C600.3 345 627.7 293 654.8 274C682 255 709 269 736.2 300C763.3 331 790.7 379 818 398C845.3 417 872.7 407 886.3 402L900 397L900 149L886.3 154C872.7 159 845.3 169 818 175C790.7 181 763.3 183 736.2 171C709 159 682 133 654.8 129C627.7 125 600.3 143 573 156C545.7 169 518.3 177 491 176C463.7 175 436.3 165 409 158C381.7 151 354.3 147 327 156C299.7 165 272.3 187 245.2 190C218 193 191 177 163.8 176C136.7 175 109.3 189 82 198C54.7 207 27.3 211 13.7 213L0 215Z" fill="#0066ff"></path><path d="M0 517L13.7 515C27.3 513 54.7 509 82 508C109.3 507 136.7 509 163.8 504C191 499 218 487 245.2 494C272.3 501 299.7 527 327 528C354.3 529 381.7 505 409 498C436.3 491 463.7 501 491 507C518.3 513 545.7 515 573 522C600.3 529 627.7 541 654.8 538C682 535 709 517 736.2 513C763.3 509 790.7 519 818 521C845.3 523 872.7 517 886.3 514L900 511L900 395L886.3 400C872.7 405 845.3 415 818 396C790.7 377 763.3 329 736.2 298C709 267 682 253 654.8 272C627.7 291 600.3 343 573 370C545.7 397 518.3 399 491 398C463.7 397 436.3 393 409 370C381.7 347 354.3 305 327 286C299.7 267 272.3 271 245.2 277C218 283 191 291 163.8 306C136.7 321 109.3 343 82 352C54.7 361 27.3 357 13.7 355L0 353Z" fill="#0059dd"></path><path d="M0 601L13.7 601C27.3 601 54.7 601 82 601C109.3 601 136.7 601 163.8 601C191 601 218 601 245.2 601C272.3 601 299.7 601 327 601C354.3 601 381.7 601 409 601C436.3 601 463.7 601 491 601C518.3 601 545.7 601 573 601C600.3 601 627.7 601 654.8 601C682 601 709 601 736.2 601C763.3 601 790.7 601 818 601C845.3 601 872.7 601 886.3 601L900 601L900 509L886.3 512C872.7 515 845.3 521 818 519C790.7 517 763.3 507 736.2 511C709 515 682 533 654.8 536C627.7 539 600.3 527 573 520C545.7 513 518.3 511 491 505C463.7 499 436.3 489 409 496C381.7 503 354.3 527 327 526C299.7 525 272.3 499 245.2 492C218 485 191 497 163.8 502C136.7 507 109.3 505 82 506C54.7 507 27.3 511 13.7 513L0 515Z" fill="#004cbb"></path></svg>